<?xml version="1.0" standalone="no"?>
<!DOCTYPE svg PUBLIC "-//W3C//DTD SVG 20010904//EN"
 "http://www.w3.org/TR/2001/REC-SVG-20010904/DTD/svg10.dtd">
<svg version="1.0" xmlns="http://www.w3.org/2000/svg"
 width="857.000000pt" height="857.000000pt" viewBox="0 0 857.000000 857.000000"
 preserveAspectRatio="xMidYMid meet">
<metadata>
Created by potrace 1.11, written by Peter Selinger 2001-2013
</metadata>
<g transform="translate(0.000000,857.000000) scale(0.100000,-0.100000)"
fill="#000000" stroke="none">
<path d="M6216 7071 c-18 -42 -61 -118 -99 -177 -14 -23 -33 -57 -41 -75 -15
-34 -35 -70 -91 -164 -16 -27 -30 -54 -31 -60 -1 -5 -29 -57 -63 -114 -34 -57
-73 -128 -87 -158 -14 -29 -30 -53 -35 -53 -5 0 -9 -6 -9 -14 0 -12 -62 -128
-100 -186 -6 -8 -23 -40 -38 -70 -15 -30 -51 -94 -79 -142 -28 -48 -48 -89
-45 -92 3 -4 0 -6 -6 -6 -7 0 -12 -5 -12 -10 0 -6 -19 -43 -42 -83 -23 -40
-58 -103 -78 -142 -20 -38 -58 -105 -83 -148 -26 -43 -47 -85 -47 -93 0 -8 -4
-14 -10 -14 -5 0 -10 -6 -10 -13 0 -7 -10 -25 -22 -40 -12 -15 -23 -33 -24
-40 -1 -6 -30 -59 -63 -116 -34 -58 -63 -110 -64 -115 -1 -6 -4 -13 -7 -16 -3
-3 -13 -21 -24 -40 -10 -19 -28 -51 -39 -70 -11 -19 -36 -64 -55 -100 -19 -36
-53 -96 -75 -135 -43 -74 -96 -170 -122 -220 -8 -16 -37 -68 -65 -115 -27 -47
-59 -104 -70 -127 -12 -24 -48 -88 -80 -144 -33 -55 -60 -104 -60 -109 0 -5
-27 -55 -61 -111 -33 -57 -69 -119 -78 -139 -23 -48 -80 -149 -100 -180 -10
-14 -25 -44 -36 -67 -10 -24 -21 -43 -25 -43 -4 0 -14 -15 -21 -32 -7 -18 -36
-71 -63 -118 -27 -47 -69 -122 -92 -167 -24 -45 -54 -99 -67 -120 -13 -21 -35
-60 -49 -88 -13 -27 -50 -94 -81 -147 -31 -54 -57 -101 -57 -106 0 -4 -12 -25
-27 -47 -15 -22 -28 -44 -29 -50 -1 -5 -18 -37 -38 -70 -20 -33 -36 -66 -36
-72 0 -7 -3 -13 -8 -13 -9 0 -49 -71 -44 -78 2 -3 0 -8 -5 -11 -4 -3 -13 -15
-19 -26 -56 -103 -80 -144 -95 -167 -11 -14 -19 -31 -19 -36 0 -6 -21 -46 -47
-89 -67 -112 -124 -224 -118 -233 7 -12 203 -6 215 6 6 6 12 18 13 25 2 8 17
38 35 67 17 29 32 54 32 57 0 3 15 28 32 57 18 29 33 57 34 63 1 5 30 57 64
115 34 58 71 123 81 145 10 22 35 67 54 100 20 33 50 88 67 123 17 34 34 62
39 62 4 0 14 17 22 37 8 21 42 84 75 141 34 56 58 102 55 102 -3 0 3 12 13 27
24 37 78 132 124 218 48 91 73 135 104 184 15 22 26 47 26 56 0 8 4 15 8 15 4
0 13 12 20 27 6 16 24 48 38 73 14 25 39 68 54 96 15 29 39 69 53 90 15 20 24
41 21 46 -3 4 0 8 5 8 6 0 11 5 11 11 0 6 24 52 53 102 30 51 63 110 74 132
11 22 37 69 58 105 20 36 60 107 87 159 27 51 64 116 83 145 18 28 32 54 31
57 0 3 12 26 27 50 15 24 27 48 27 53 -1 5 2 12 7 15 4 3 13 15 19 26 56 103
80 144 95 167 11 14 19 31 19 36 0 6 28 57 61 114 34 57 70 121 80 143 10 22
27 54 37 70 57 97 86 150 83 154 -1 2 1 7 6 10 5 3 14 17 21 31 7 14 26 48 41
75 16 28 40 70 53 95 13 25 36 64 51 87 15 24 27 49 27 56 0 7 4 17 9 22 11
11 65 106 121 210 48 91 73 135 104 184 14 22 27 46 28 53 2 7 5 15 8 18 3 3
13 21 24 40 10 19 28 51 39 70 11 19 36 64 55 100 19 36 40 72 47 80 8 8 23
35 34 60 12 25 29 59 39 75 56 95 86 150 83 153 -1 2 5 14 13 27 22 34 119
205 134 235 6 14 27 52 47 85 19 33 45 80 58 105 12 25 25 47 28 50 4 3 9 14
13 25 6 20 2 21 -103 21 l-109 0 -16 -35z"/>
<path d="M4080 7048 c-19 -29 -35 -58 -36 -64 -1 -6 -13 -28 -26 -50 -14 -21
-25 -41 -25 -44 0 -3 -16 -30 -35 -60 -19 -30 -43 -73 -53 -94 -10 -22 -26
-49 -36 -60 -11 -11 -19 -25 -19 -31 0 -7 -23 -52 -52 -101 -28 -49 -70 -125
-93 -169 -23 -44 -61 -110 -83 -147 -23 -38 -39 -68 -36 -68 4 0 -1 -11 -10
-25 -33 -50 -126 -215 -126 -223 0 -5 -13 -26 -30 -48 -16 -21 -30 -45 -30
-52 0 -8 -8 -26 -19 -40 -17 -25 -40 -65 -116 -207 -44 -82 -69 -126 -101
-177 -15 -23 -27 -49 -27 -55 0 -7 -4 -13 -9 -13 -4 0 -8 -5 -8 -11 0 -6 -27
-57 -60 -113 -33 -57 -60 -107 -60 -113 0 -5 -13 -29 -30 -51 -16 -23 -30 -45
-30 -49 0 -5 -16 -34 -35 -65 -19 -32 -31 -58 -27 -58 4 0 3 -4 -3 -8 -13 -9
-28 -34 -63 -102 -16 -30 -46 -84 -66 -120 -21 -36 -61 -107 -88 -159 -27 -51
-64 -116 -81 -145 -18 -28 -33 -56 -34 -62 -1 -5 -30 -57 -63 -115 -34 -57
-71 -123 -82 -146 -11 -23 -26 -47 -34 -54 -8 -6 -14 -17 -14 -24 0 -8 -21
-49 -47 -92 -25 -43 -63 -109 -83 -148 -20 -38 -60 -109 -87 -157 -28 -48 -48
-89 -45 -92 3 -4 0 -6 -6 -6 -7 0 -12 -5 -12 -10 0 -6 -19 -43 -42 -83 -23
-40 -56 -101 -75 -136 -18 -35 -39 -71 -48 -81 -8 -9 -15 -21 -15 -26 0 -5
-16 -35 -35 -67 -19 -32 -35 -65 -35 -73 0 -7 -4 -14 -8 -14 -8 0 -55 -76 -58
-95 -1 -5 -30 -57 -64 -115 -35 -58 -63 -111 -63 -117 0 -7 -4 -13 -8 -13 -3
0 -9 -8 -12 -17 -3 -10 -20 -43 -38 -73 -17 -30 -48 -84 -67 -120 -19 -36 -53
-96 -75 -135 -22 -38 -51 -90 -64 -115 -12 -25 -26 -50 -31 -56 -11 -12 -36
-57 -37 -64 0 -3 -22 -43 -49 -90 -27 -47 -67 -119 -88 -160 -22 -41 -44 -81
-51 -88 -8 -10 -8 -15 2 -21 18 -11 199 -7 210 4 5 6 27 44 49 85 48 92 73
137 107 189 14 23 23 41 19 41 -7 0 35 69 53 88 7 7 13 18 13 23 0 9 91 171
126 224 9 14 14 25 11 25 -3 0 15 35 40 77 26 43 63 110 83 148 20 39 60 109
87 157 28 48 48 89 45 92 -3 4 0 6 6 6 7 0 12 5 12 10 0 6 19 43 42 83 23 40
53 95 67 122 15 28 36 64 47 80 12 17 29 46 38 65 15 35 35 70 91 165 16 27
30 54 31 60 1 5 30 57 63 114 34 58 63 110 64 115 1 6 4 13 7 16 3 3 13 21 24
40 10 19 28 51 39 70 11 19 38 69 60 110 22 41 44 80 49 86 4 7 20 32 33 58
44 81 71 130 96 171 13 22 24 42 24 45 0 3 25 48 54 100 30 52 69 122 86 155
41 78 68 124 99 174 15 22 26 45 26 51 0 6 12 29 27 53 32 50 77 129 101 177
9 19 20 37 25 38 4 2 7 9 7 15 0 6 7 18 16 28 8 9 16 23 18 31 1 8 12 32 25
53 40 67 62 107 98 173 18 35 57 105 86 155 28 51 51 95 49 100 -1 4 3 7 8 7
6 0 10 5 10 10 0 6 19 43 42 83 23 40 56 101 75 136 18 35 39 71 46 80 8 9 23
34 33 56 39 79 78 145 85 145 9 0 83 -113 113 -173 11 -20 23 -37 28 -37 4 0
8 -5 8 -10 0 -6 16 -36 35 -66 19 -30 35 -59 35 -64 0 -6 5 -10 11 -10 5 0 8
-4 5 -8 -3 -5 6 -20 20 -35 13 -14 24 -29 24 -32 0 -4 20 -38 45 -76 25 -38
45 -73 45 -77 0 -4 7 -15 15 -25 8 -9 15 -22 15 -27 0 -6 5 -10 10 -10 6 0 10
-6 10 -12 0 -7 14 -33 30 -58 17 -25 37 -58 44 -75 8 -16 23 -40 35 -52 11
-12 21 -26 21 -30 0 -5 15 -31 34 -58 18 -28 36 -60 40 -71 3 -12 15 -29 26
-39 11 -10 20 -24 20 -32 0 -7 5 -13 10 -13 6 0 10 -6 10 -12 0 -7 14 -33 31
-58 16 -25 34 -55 39 -67 14 -34 45 -29 61 10 7 17 41 78 75 134 34 55 60 104
57 107 -4 3 -1 6 5 6 7 0 12 4 12 9 0 5 27 53 60 108 33 54 60 102 60 106 0 5
14 28 30 52 17 24 30 46 30 50 0 3 16 29 35 58 19 28 35 56 35 62 0 6 11 26
24 45 l23 34 -53 84 c-30 45 -54 86 -54 90 0 4 -16 31 -35 59 -19 29 -35 55
-35 58 0 4 -12 25 -27 48 -16 23 -37 59 -47 80 -11 20 -23 37 -28 37 -4 0 -8
5 -8 11 0 6 -20 42 -45 80 -25 38 -45 73 -45 78 0 5 -13 25 -30 46 -16 21 -30
43 -30 49 0 6 -16 35 -35 63 -19 29 -35 56 -35 61 0 5 -11 22 -25 38 -14 16
-25 32 -25 37 0 4 -19 38 -42 75 -61 95 -67 105 -74 125 -3 9 -10 17 -14 17
-5 0 -12 12 -18 28 -5 15 -35 66 -66 114 -31 48 -56 91 -56 95 0 5 -17 34 -38
66 l-39 57 -33 -52z"/>
<path d="M5513 4728 c-9 -18 -18 -38 -19 -44 -1 -6 -14 -31 -30 -55 -40 -63
-81 -137 -104 -187 -11 -24 -27 -50 -35 -58 -8 -9 -15 -22 -15 -30 0 -8 -4
-14 -10 -14 -5 0 -10 -7 -10 -15 0 -8 -16 -39 -35 -70 -20 -30 -33 -55 -31
-55 3 0 -11 -24 -30 -52 -19 -29 -34 -56 -34 -61 0 -5 -18 -39 -40 -76 -39
-66 -40 -69 -26 -102 8 -19 29 -54 46 -79 16 -25 30 -50 30 -56 0 -6 10 -22
21 -35 12 -13 28 -37 35 -54 7 -16 27 -50 44 -75 16 -25 30 -51 30 -57 0 -7 4
-13 9 -13 5 0 21 -24 35 -52 14 -29 40 -73 56 -98 16 -25 30 -51 30 -57 0 -7
3 -13 8 -13 8 0 57 -75 57 -88 0 -4 30 -55 68 -113 37 -59 67 -109 67 -113 0
-4 29 -54 65 -111 36 -57 65 -106 65 -108 0 -3 23 -43 52 -89 28 -46 61 -101
73 -123 12 -22 45 -77 73 -122 28 -46 58 -98 67 -117 9 -18 24 -42 33 -53 17
-20 34 -48 84 -142 16 -30 40 -68 54 -84 13 -15 24 -33 24 -38 0 -6 13 -30 30
-53 16 -24 27 -46 24 -48 -2 -3 14 -29 36 -59 22 -29 40 -57 40 -62 0 -5 13
-28 30 -52 16 -24 35 -56 40 -70 l10 -27 218 6 c119 3 337 9 485 12 147 3 267
10 267 15 0 4 -13 30 -30 56 -16 26 -30 53 -30 60 0 7 -4 13 -10 13 -5 0 -10
6 -10 13 0 6 -11 25 -25 41 -14 16 -25 33 -25 38 0 5 -13 29 -30 53 -16 24
-34 54 -39 67 -5 13 -21 38 -35 57 -14 19 -26 39 -26 43 0 5 -16 32 -35 61
-19 28 -35 57 -35 62 0 6 -10 22 -21 34 -12 13 -33 44 -47 70 -13 25 -34 64
-46 86 -12 22 -36 60 -54 84 -18 24 -32 48 -32 53 0 5 -16 32 -35 61 -19 28
-35 55 -35 59 0 5 -13 27 -30 50 -16 22 -30 45 -30 49 0 5 -28 53 -62 107 -35
54 -64 103 -65 109 -2 7 -32 57 -67 112 -36 54 -62 102 -59 105 4 3 1 6 -5 6
-7 0 -12 4 -12 9 0 9 -68 125 -101 172 -10 14 -16 29 -12 33 3 3 1 6 -5 6 -7
0 -12 4 -12 9 0 6 -27 53 -61 106 -33 53 -63 104 -66 113 -4 9 -33 58 -65 108
-32 50 -58 96 -58 102 0 7 -4 12 -10 12 -5 0 -10 6 -10 14 0 8 -12 28 -26 45
-14 17 -23 31 -20 31 4 0 -9 24 -29 52 -19 29 -35 58 -35 65 0 7 -4 13 -10 13
-5 0 -10 6 -10 13 0 7 -8 22 -18 33 -10 10 -27 37 -38 59 -38 73 -59 110 -66
113 -5 2 -8 9 -8 16 0 7 -9 21 -20 31 -11 10 -22 27 -26 39 -4 11 -20 41 -37
65 -17 25 -30 50 -30 58 0 7 -4 13 -9 13 -4 0 -8 5 -8 11 0 5 -12 26 -27 45
-16 18 -28 38 -28 43 0 19 -65 101 -80 101 -8 0 -22 -15 -32 -32z"/>
</g>
</svg>
