<?xml version="1.0" encoding="UTF-8"?>
<svg viewBox="0 0 225 73" version="1.1" xmlns="http://www.w3.org/2000/svg" xmlns:xlink="http://www.w3.org/1999/xlink">
    <!-- Generator: Sketch 55.2 (78181) - https://sketchapp.com -->
    <title>ChathamFinancial-Logo-Primary-POSITIVE-RGB</title>
    <desc>Created with Sketch.</desc>
    <defs>
        <polygon id="path-1" points="0.5054 0.501454545 37.6339333 0.501454545 37.6339333 21 0.5054 21"></polygon>
    </defs>
    <g id="Header-+-Footer" stroke="none" stroke-width="1" fill="none" fill-rule="evenodd">
        <g id="CF---Nav-Style" transform="translate(-260.000000, -211.000000)">
            <g id="Nav--Utility-item-hover" transform="translate(-1.000000, 186.000000)">
                <g id="ChathamFinancial-Logo-Primary-POSITIVE-RGB" transform="translate(261.000000, 25.000000)">
                    <path d="M29.7829476,8.98654425 C29.7829476,7.47031963 29.1458624,6.36330516 28.218166,5.6048771 C26.4224017,4.03055475 23.4089575,3.73943457 21.6131932,3.73943457 C16.5140011,3.73943457 8.69197595,4.84708054 8.69197595,20.7039736 C8.69197595,30.4397649 11.9941485,37.2018362 21.7864302,37.2018362 C23.872178,37.2018362 26.6533844,36.9100845 28.218166,35.044642 C28.9713701,34.2281162 29.4345907,33.0623725 29.4345907,31.4886816 L30.6516431,31.4886816 C30.5361518,33.1791995 30.4206605,34.9871758 30.4206605,37.7266103 L30.4206605,38.7174293 C27.8126911,39.5920529 23.6411954,40 20.6277511,40 C13.3273198,40 7.24331329,37.901535 3.65052947,33.4134849 C1.33317135,30.4972311 0,26.4758574 0,21.4036724 C0,11.3180317 5.67853166,4.96390751 13.0950819,2.28193918 C16.0507805,1.23302244 19.7006823,1 21.9025492,1 C26.3640284,1 30.4784061,1.64033809 31,1.64033809 C30.8845087,2.74861556 30.8845087,4.08928398 30.8845087,5.25565919 C30.8845087,6.76998931 30.9416267,8.22874769 31,8.98654425 L29.7829476,8.98654425" id="Fill-1" fill="#1F3F65"></path>
                    <path d="M59.1003293,38.7850859 C55.2969413,38.7850859 52.0914825,39 52.0914825,39 L52.0914825,37.6552158 C53.7754592,37.3868873 54.3733883,36.525974 54.8621415,35.5569753 C55.3515293,34.5892333 55.5686119,32.2767072 55.5686119,26.8441558 C55.5686119,23.9930876 55.5146586,21.4656473 55.3515293,19.9059489 C55.0798588,17.4319229 54.0477645,14.6883117 49.5924941,14.6883117 C46.2239061,14.6883117 44.6484707,16.1945957 44.6484707,16.1945957 L44.6484707,30.2331378 C44.6484707,34.5351906 44.8116,35.3967323 45.5180704,36.3644742 C46.0607768,37.1173021 47.0935058,37.5477587 47.9624707,37.6552158 L47.9624707,39 C47.9624707,39 44.9740945,38.7850859 41.2252946,38.7850859 C37.4225414,38.7850859 34,39 34,39 L34,37.6552158 C34.6518824,37.6552158 35.9010592,37.3328446 36.7706589,36.3110599 C37.7487999,35.1811898 37.8027532,33.5674487 37.8027532,28.4578969 L37.8027532,10.1656891 C37.8027532,6.45433599 37.7487999,4.94868035 37.1508708,4.08776707 C36.3904471,2.95789694 34.868965,2.90448261 34.054588,2.85043988 L34.054588,1.39819858 C34.054588,1.39819858 37.4771294,1.39819858 40.9542587,0.860284876 C43.2901178,0.483870968 44.4853414,0 44.4853414,0 L44.8655532,0.26895685 C44.8116,1.23732719 44.6484707,4.46418098 44.6484707,10.7576456 L44.6484707,14.5808546 C44.6484707,14.5808546 46.7126592,11.1378299 53.1781648,11.1378299 C58.2853176,11.1378299 60.8382592,13.7199413 61.7624469,16.5710096 C62.2512001,18.0772937 62.3597413,20.6041056 62.3597413,22.4880603 L62.3597413,30.2331378 C62.3597413,34.428362 62.5228706,35.4495182 63.3378823,36.418517 C63.8266355,37.009845 64.8047765,37.5477587 66,37.6552158 L66,39 C66,39 63.2293411,38.7850859 59.1003293,38.7850859" id="Fill-2" fill="#1F3F65"></path>
                    <path d="M140.100329,38.7850859 C136.297576,38.7850859 133.092117,39 133.092117,39 L133.092117,37.6552158 C134.776094,37.3868873 135.374023,36.525974 135.862776,35.5569753 C136.351529,34.5892333 136.568612,32.2767072 136.568612,26.8441558 C136.568612,23.9930876 136.514659,21.4656473 136.351529,19.9059489 C136.079859,17.4319229 135.047765,14.6883117 130.592494,14.6883117 C127.224541,14.6883117 125.649105,16.1945957 125.649105,16.1945957 L125.649105,30.2331378 C125.649105,34.5351906 125.812235,35.3967323 126.51807,36.3644742 C127.061412,37.1173021 128.093506,37.5477587 128.962471,37.6552158 L128.962471,39 C128.962471,39 125.974729,38.7850859 122.225929,38.7850859 C118.423176,38.7850859 115,39 115,39 L115,37.6552158 C115.652517,37.6552158 116.901694,37.3328446 117.770659,36.3110599 C118.7488,35.1811898 118.803388,33.5674487 118.803388,28.4578969 L118.803388,10.1656891 C118.803388,6.45433599 118.7488,4.94868035 118.151506,4.08776707 C117.390447,2.95789694 115.8696,2.90448261 115.054588,2.85043988 L115.054588,1.39819858 C115.054588,1.39819858 118.477129,1.39819858 121.954259,0.860284876 C124.290118,0.483870968 125.485341,0 125.485341,0 L125.866188,0.26895685 C125.812235,1.23732719 125.649105,4.46418098 125.649105,10.7576456 L125.649105,14.5808546 C125.649105,14.5808546 127.713294,11.1378299 134.178165,11.1378299 C139.285318,11.1378299 141.838894,13.7199413 142.762447,16.5710096 C143.251835,18.0772937 143.360376,20.6041056 143.360376,22.4880603 L143.360376,30.2331378 C143.360376,34.428362 143.522871,35.4495182 144.337882,36.418517 C144.82727,37.009845 145.805411,37.5477587 147,37.6552158 L147,39 C147,39 144.229341,38.7850859 140.100329,38.7850859" id="Fill-3" fill="#1F3F65"></path>
                    <path d="M83.1005615,26.9083207 C81.7712101,26.9083207 78.7938359,27.0156961 77.1986143,27.7098903 C75.656194,28.4047088 74.6461355,29.7406582 74.6461355,31.9312405 C74.6461355,34.8166414 76.2947796,36.2587176 79.0062836,36.2587176 C81.2928921,36.2587176 82.5153984,35.2973335 83.1005615,34.9233925 L83.1005615,26.9083207 Z M87.77876,40 C84.2168439,40 83.4726556,37.7020423 83.3130092,36.3660929 C83.3130092,36.3660929 81.2394696,40 75.9226855,40 C69.3293513,40 68,35.618211 68,32.7328101 C68,30.1145991 69.0106797,27.1224472 72.466372,25.8401855 C74.8592044,24.9318648 78.2086728,24.7177383 83.1005615,24.7177383 L83.1005615,23.381789 C83.1005615,21.0313921 83.0471389,19.2141265 82.5153984,18.0386159 C81.6643651,16.1152234 80.0697647,15.527156 77.88938,15.527156 C75.4437463,15.527156 73.5298531,16.5422278 72.2539243,18.7864978 L70.4990563,17.6646749 C70.8711504,16.7026665 72.94469,12 80.2287899,12 C85.3865488,12 87.6197348,13.7642023 88.7894397,16.0615357 C89.6404731,17.7177383 89.7460757,19.4276286 89.7460757,23.381789 C89.7460757,25.2527424 89.5870505,28.1912066 89.5870505,32.7328101 C89.5870505,34.4427004 89.8529208,35.9384643 91.6605901,35.9384643 C92.6172261,35.9384643 93.0961653,35.5651476 93.3086131,35.4577722 L94,36.5795951 C92.4047784,38.7171141 90.7567555,40 87.77876,40 L87.77876,40 Z" id="Fill-4" fill="#1F3F65"></path>
                    <path d="M106.22019,40 C101.509763,40 99.6046928,37.928222 98.8633168,35.1128879 C98.5461143,33.7846659 98.4397618,32.1907996 98.4397618,29.5349763 C98.4397618,21.3006207 98.492938,18.0061336 98.5461143,15.3503103 L95,15.3503103 L95,14.0220884 C95.476113,13.8631982 97.4875358,13.0128879 99.0754035,11.6312888 C101.245118,9.71902154 103.203365,6.69079956 103.679478,6 L105.108435,6 L105.108435,12.6938664 L113.84109,12.6938664 L113.84109,15.3503103 L105.108435,15.3503103 L105.108435,30.0662651 C105.108435,33.7312888 105.426256,36.8128879 109.977773,36.8128879 C112.041753,36.8128879 113.364977,36.0159547 113.364977,36.0159547 L114,37.2374224 C113.417534,37.8754655 111.036351,40 106.22019,40" id="Fill-5" fill="#1F3F65"></path>
                    <path d="M164.100561,26.9083207 C162.77121,26.9083207 159.793215,27.0156961 158.197993,27.7098903 C156.656194,28.4047088 155.645514,29.7406582 155.645514,31.9312405 C155.645514,34.8166414 157.29478,36.2587176 160.005662,36.2587176 C162.292892,36.2587176 163.514777,35.2973335 164.100561,34.9233925 L164.100561,26.9083207 Z M168.77876,40 C165.216844,40 164.472656,37.7020423 164.313009,36.3660929 C164.313009,36.3660929 162.238848,40 156.922685,40 C150.32873,40 149,35.618211 149,32.7328101 C149,30.1145991 150.01068,27.1224472 153.465751,25.8401855 C155.858583,24.9318648 159.208673,24.7177383 164.100561,24.7177383 L164.100561,23.381789 C164.100561,21.0313921 164.046518,19.2141265 163.514777,18.0386159 C162.664365,16.1152234 161.069765,15.527156 158.890001,15.527156 C156.443746,15.527156 154.529853,16.5422278 153.253303,18.7864978 L151.499056,17.6646749 C151.870529,16.7026665 153.944069,12 161.228169,12 C166.385928,12 168.619114,13.7642023 169.788819,16.0615357 C170.639852,17.7177383 170.746076,19.4276286 170.746076,23.381789 C170.746076,25.2527424 170.586429,28.1912066 170.586429,32.7328101 C170.586429,34.4427004 170.8523,35.9384643 172.659969,35.9384643 C173.617226,35.9384643 174.096165,35.5651476 174.308613,35.4577722 L175,36.5795951 C173.404157,38.7171141 171.756755,40 168.77876,40 L168.77876,40 Z" id="Fill-6" fill="#1F3F65"></path>
                    <path d="M218.146002,38.784436 C214.368769,38.784436 211.184822,39 211.184822,39 L211.184822,37.6511492 C212.857498,37.3820093 213.450784,36.5184927 213.936257,35.5465637 C214.422991,34.5758954 214.638617,32.3105824 214.638617,26.8609729 C214.638617,24.0019134 214.584395,21.4126241 214.422991,19.8482093 C214.206104,17.5822659 213.29001,14.66837 208.702604,14.66837 C204.924741,14.66837 203.252065,16.3954033 203.252065,16.3954033 C203.252065,16.3954033 203.953164,17.905612 203.953164,22.4381289 L203.953164,30.2066272 C203.953164,34.5216892 204.115199,35.3858362 204.816297,36.3565045 C205.356623,37.1116089 206.327569,37.5433672 207.191333,37.6511492 L207.191333,39 C207.191333,39 204.601302,38.784436 200.715626,38.784436 C196.722136,38.784436 193.753815,39 193.753815,39 L193.753815,37.6511492 C195.427121,37.3820093 195.966816,36.5184927 196.452289,35.5465637 C196.937762,34.5758954 197.154018,32.2563762 197.154018,26.8073971 C197.154018,23.9477073 197.154018,21.3584179 196.991984,19.7940031 C196.775728,17.5822659 195.804151,14.6147941 191.325819,14.6147941 C188.033429,14.6147941 186.523418,16.1256331 186.523418,16.1256331 L186.523418,30.2066272 C186.523418,34.5216892 186.684192,35.3858362 187.386551,36.3565045 C187.925616,37.1116089 188.951414,37.5433672 189.814547,37.6511492 L189.814547,39 C189.814547,39 187.008891,38.784436 183.177436,38.784436 C179.560977,38.784436 176,39 176,39 L176,37.6511492 C176.647508,37.6511492 177.83408,37.3278032 178.697843,36.3029287 C179.66942,35.1696419 179.776603,33.5510209 179.776603,28.4260181 L179.776603,21.1428539 C179.776603,17.4202778 179.723642,15.9094388 179.129725,15.0465525 C178.320183,13.8596898 176.593286,13.8054836 176.107813,13.8054836 L176.107813,12.403057 C176.107813,12.403057 179.237538,12.403057 182.691963,11.8628863 C185.012146,11.4865948 185.983093,11.1084123 185.983093,11.1084123 L186.360753,11.3781825 L186.360753,14.560588 C186.360753,14.560588 188.681567,11.0535759 194.995239,11.0535759 C200.931882,11.0535759 202.658149,14.9929766 202.658149,14.9929766 C202.658149,14.9929766 205.24881,11 211.994364,11 C217.444903,11 219.872899,13.6434955 220.790885,16.5031853 C221.276358,18.0140243 221.384171,20.4955316 221.384171,22.3839227 L221.384171,30.2066272 C221.384171,34.4145375 221.546206,35.4387817 222.355117,36.4107107 C222.84059,37.0038268 223.812167,37.5433672 225,37.6511492 L225,39 C225,39 222.08527,38.784436 218.146002,38.784436" id="Fill-7" fill="#1F3F65"></path>
                    <polyline id="Fill-8" fill="#1C72A6" points="5 53 15 53 15 55.3958962 7.69558388 55.3958962 7.69558388 60.948494 14.6761916 60.948494 14.6761916 63.3437801 7.69558388 63.3437801 7.69558388 72 5 72 5 53"></polyline>
                    <polygon id="Fill-9" fill="#1C72A6" points="22 72 25 72 25 53 22 53"></polygon>
                    <polyline id="Fill-10" fill="#1C72A6" points="34 53 37.7358374 53 46.1982759 68.2978614 46.2524631 68.2978614 46.2524631 53 49 53 49 72 45.4833744 72 36.8017241 56.3751204 36.7469212 56.3751204 36.7469212 72 34 72 34 53"></polyline>
                    <path d="M63.4457003,55.5587952 L59.6624173,64.9776508 L67.2295935,64.9776508 L63.4457003,55.5587952 Z M62.1120031,53 L64.9703616,53 L73,72 L70.0330422,72 L68.1008285,67.2094278 L58.7911823,67.2094278 L56.8583585,72 L54,72 L62.1120031,53 L62.1120031,53 Z" id="Fill-11" fill="#1C72A6"></path>
                    <g id="Group-15" transform="translate(79.000000, 52.000000)">
                        <mask id="mask-2" fill="white">
                            <use xlink:href="#path-1"></use>
                        </mask>
                        <g id="Clip-13"></g>
                        <polyline id="Fill-12" fill="#1C72A6" mask="url(#mask-2)" points="0.5054 0.841909091 4.34846667 0.841909091 13.0517333 16.7980909 13.1081 16.7980909 13.1081 0.841909091 15.9340333 0.841909091 15.9340333 20.6595455 12.3170667 20.6595455 3.3877 4.36227273 3.33133333 4.36227273 3.33133333 20.6595455 0.5054 20.6595455 0.5054 0.841909091"></polyline>
                        <path d="M37.3793333,4.10709091 C36.1361,3.36890909 34.7516333,2.99918182 33.3101667,2.99918182 C28.7609333,2.99918182 25.7374,6.293 25.7374,10.7507273 C25.7374,15.407 29.0719,18.5022727 33.1689333,18.5022727 C34.5819,18.5022727 36.4749333,18.1331818 37.4642,17.5362727 L37.6339333,20.2904545 C36.1361,20.9153636 34.2994333,21.0006364 33.1410667,21.0006364 C26.8957667,21.0006364 22.7423667,16.9692727 22.7423667,10.6654545 C22.7423667,4.56145455 27.1503667,0.501454545 33.1689333,0.501454545 C34.6946333,0.501454545 36.1924667,0.728 37.6054333,1.35290909 L37.3793333,4.10709091" id="Fill-14" fill="#1C72A6" mask="url(#mask-2)"></path>
                    </g>
                    <polygon id="Fill-16" fill="#1C72A6" points="123 72 126 72 126 53 123 53"></polygon>
                    <path d="M140.445397,55.5587952 L136.661625,64.9776508 L144.229169,64.9776508 L140.445397,55.5587952 Z M139.111743,53 L141.970009,53 L150,72 L147.032527,72 L145.100376,67.2094278 L135.791028,67.2094278 L133.858267,72 L131,72 L139.111743,53 L139.111743,53 Z" id="Fill-17" fill="#1C72A6"></path>
                    <polyline id="Fill-18" fill="#1C72A6" points="156 53 158.806289 53 158.806289 69.605324 167 69.605324 167 72 156 72 156 53"></polyline>
                </g>
            </g>
        </g>
    </g>
</svg>
